<svg xmlns="http://www.w3.org/2000/svg" viewBox="0 0 182.75 182.75"><defs><style>.cls-1{fill:#7e489c;}</style></defs><title>face-ok</title><g id="Layer_2" data-name="Layer 2"><g id="Layer_1-2" data-name="Layer 1"><path class="cls-1" d="M182.75,91.54q0,37.68-26.79,64.42T91.21,182.75q-37.68,0-64.42-26.66T0,91.46Q0,53.54,26.66,26.79T91.29,0Q129.21,0,156,26.79T182.75,91.54Zm-8.91,0q0-34.36-24.23-58.52T91,8.91q-34.11,0-58.39,24.23T8.4,91.71q0,34.11,24.36,58.39T91.2,174.35q34.36,0,58.52-24.36T173.84,91.55Zm-27.71,31.59-109.7.1q-4.34,0-4.33-4.32c0-2.88,1.43-4.33,4.32-4.33l109.7-.11c2.88,0,4.33,1.44,4.33,4.33S149,123.14,146.13,123.14ZM65.38,56a8.29,8.29,0,0,1-7.88,7.9,8.49,8.49,0,0,1-5.86-2.29A7.22,7.22,0,0,1,49.09,56a7.82,7.82,0,0,1,2.41-5.73,8.09,8.09,0,0,1,6-2.43A7.61,7.61,0,0,1,63,50.29,7.87,7.87,0,0,1,65.38,56ZM129.27,56a7.55,7.55,0,0,1-2.42,5.47,8,8,0,0,1-11.45,0A7.49,7.49,0,0,1,113,56a8.1,8.1,0,0,1,13.86-5.74A7.92,7.92,0,0,1,129.27,56Z"/></g></g></svg>