<svg xmlns="http://www.w3.org/2000/svg" viewBox="0 0 182.75 182.75"><defs><style>.cls-1{fill:#7e489c;}</style></defs><title>Face-chatiado</title><g id="Layer_2" data-name="Layer 2"><g id="Layer_1-2" data-name="Layer 1"><path class="cls-1" d="M182.75,91.63q0,37.66-26.85,64.4T91.12,182.75q-37.66,0-64.39-26.72T0,91.37Q0,53.45,26.73,26.73T91.38,0Q129.3,0,156,26.85T182.75,91.63Zm-8.91,0q0-34.36-24.18-58.54T91.12,8.91Q57,8.91,32.71,33.09T8.4,91.63q0,34.11,24.31,58.41t58.41,24.31q34.36,0,58.54-24.31T173.84,91.63Zm-26.47,7.13H60.07q-12.74,0-18.07,7.12-2.55,3.32-4.58,13-1.53,6.89-5.35,6.62c-2.89-.16-4.24-1.69-4.07-4.58q1.77-30.79,31.81-30.8h87.56c3.73,0,5.6,1.45,5.6,4.33S151.1,98.76,147.37,98.76ZM65.41,56a8.27,8.27,0,0,1-7.89,7.89,8.48,8.48,0,0,1-5.85-2.3A7.22,7.22,0,0,1,49.12,56a7.83,7.83,0,0,1,2.42-5.73,8.12,8.12,0,0,1,6-2.42A7.58,7.58,0,0,1,63,50.27,7.82,7.82,0,0,1,65.41,56Zm63.89,0a7.56,7.56,0,0,1-2.42,5.47,8,8,0,0,1-11.45,0A7.52,7.52,0,0,1,113,56a8.15,8.15,0,0,1,16.29,0Z"/></g></g></svg>