<svg xmlns="http://www.w3.org/2000/svg" viewBox="0 0 182.75 183.01"><defs><style>.cls-1{fill:#7e489c;}</style></defs><title>face-triste</title><g id="Layer_2" data-name="Layer 2"><g id="Layer_1-2" data-name="Layer 1"><path class="cls-1" d="M182.75,91.54q0,37.68-26.79,64.55T91.21,183q-37.68,0-64.42-26.79T0,91.46Q0,53.54,26.66,26.79T91.29,0Q129.21,0,156,26.79T182.75,91.54Zm-8.91,0q0-34.35-24.23-58.52T91,8.91q-34.11,0-58.39,24.24T8.4,91.71q0,34.37,24.36,58.52T91.2,174.35q34.36,0,58.52-24.23T173.84,91.55Zm-19.05,41.51c.17,3.22-1.35,4.84-4.57,4.84-2.72,0-4.17-1.35-4.33-4.07Q143.57,99.23,91.13,99T36.69,133.93c-.17,2.89-1.61,4.33-4.32,4.34q-4.59,0-4.33-4.84,3-43,63.08-43.07,60.57-.06,63.67,43h-3v-.26ZM52.65,56.54a76.26,76.26,0,0,1,1.8,14A19,19,0,0,1,52.17,80,7.42,7.42,0,0,1,45.3,84q-8.14,0-8.15-8.14c0-3.56,1.52-5.85,4.57-6.87.85-.17,2.12-.52,3.82-1Q49.61,66.73,52.65,56.54Zm12.73-.26a8.28,8.28,0,0,1-7.88,7.89,8.48,8.48,0,0,1-5.86-2.28,7.24,7.24,0,0,1-2.55-5.6,7.86,7.86,0,0,1,2.41-5.73,8.12,8.12,0,0,1,6-2.42A7.57,7.57,0,0,1,63,50.55,7.83,7.83,0,0,1,65.38,56.28Zm63.89-.06a7.56,7.56,0,0,1-2.42,5.47,8,8,0,0,1-11.45,0A7.51,7.51,0,0,1,113,56.23a8.15,8.15,0,0,1,16.29,0Z"/></g></g></svg>