<svg xmlns="http://www.w3.org/2000/svg" viewBox="0 0 182.75 182.75"><defs><style>.cls-1{fill:#7e489c;}</style></defs><title>face-feliz</title><g id="Layer_2" data-name="Layer 2"><g id="Layer_1-2" data-name="Layer 1"><path class="cls-1" d="M182.75,91.54q0,37.68-26.79,64.43T91.21,182.75q-37.68,0-64.42-26.66T0,91.46Q0,53.54,26.66,26.79T91.29,0Q129.21,0,156,26.79T182.75,91.54Zm-8.91,0q0-34.35-24.23-58.52T91,8.91q-34.11,0-58.39,24.24T8.4,91.71q0,34.11,24.36,58.39T91.2,174.35q34.36,0,58.52-24.36T173.84,91.55ZM155,90.81h-1.78l1.52-1.53q-1.75,30.8-33.31,30.83l-61.34.06q-29.79,0-31.85-30.77-.26-4.58,4.32-4.59,3.82,0,4.08,4.33,1,22.14,23.44,22.12l61.34-.06q13.48,0,19.08-7.14,2.79-3.32,4.83-12.74,1.77-6.87,5.59-6.62Q155.25,85,155,90.81Zm-89.38-35a8.28,8.28,0,0,1-7.88,7.89,8.44,8.44,0,0,1-5.85-2.28,7.29,7.29,0,0,1-2.56-5.6,7.83,7.83,0,0,1,2.42-5.73,8.12,8.12,0,0,1,6-2.42A7.57,7.57,0,0,1,63.21,50,7.85,7.85,0,0,1,65.63,55.77Zm63.89-.06a7.55,7.55,0,0,1-2.41,5.47,8,8,0,0,1-11.46,0,7.55,7.55,0,0,1-2.42-5.47,8.15,8.15,0,0,1,16.29,0Z"/></g></g></svg>