<svg xmlns="http://www.w3.org/2000/svg" viewBox="0 0 188 59"><defs><style>.cls-1{fill:#7e489c;}.cls-2{fill:none;stroke:#7e489c;stroke-miterlimit:10;stroke-width:6px;}</style></defs><title>timer-border</title><g id="Layer_2" data-name="Layer 2"><g id="Layer_1-2" data-name="Layer 1"><path class="cls-1" d="M32.81,10h2.38l.28.06a16.13,16.13,0,0,1,4,.76c7.24,2.47,11.67,7.44,13.21,15,.14.67.2,1.36.29,2v2.38a1.4,1.4,0,0,0-.06.28,15.91,15.91,0,0,1-.76,4q-3.68,10.9-15,13.25c-.67.14-1.36.2-2,.29H32.81l-.28-.06A29.77,29.77,0,0,1,29,47.3C21.47,45,16.89,39.94,15.29,32.24c-.14-.68-.2-1.37-.29-2.05V27.81c0-.11.05-.21.07-.32a26.25,26.25,0,0,1,.64-3.56c2.35-7.48,7.36-12,15.06-13.64C31.44,10.15,32.13,10.09,32.81,10ZM19.75,29A14.25,14.25,0,1,0,34,14.75,14.2,14.2,0,0,0,19.75,29Z"/><path class="cls-1" d="M30.83,25.05c0-1.29,0-2.57,0-3.86a3.17,3.17,0,1,1,6.34,0q0,3,0,6.08a1,1,0,0,0,.33.85c1.17,1.13,2.31,2.27,3.45,3.43a3.13,3.13,0,0,1-1.47,5.3,2.85,2.85,0,0,1-2.81-.74c-1.69-1.64-3.34-3.31-5-5a3,3,0,0,1-.85-2.19Z"/><rect class="cls-2" x="3" y="3" width="182" height="53" rx="26.5" ry="26.5"/></g></g></svg>