<svg xmlns="http://www.w3.org/2000/svg" viewBox="0 0 38 38"><defs><style>.cls-1{fill:#7e489c;}</style></defs><title>timer-icon</title><g id="Layer_2" data-name="Layer 2"><g id="Layer_1-2" data-name="Layer 1"><path class="cls-1" d="M17.81,0h2.38l.28.06a16.13,16.13,0,0,1,4,.76c7.24,2.47,11.67,7.44,13.21,15,.14.67.2,1.36.29,2v2.38a1.4,1.4,0,0,0-.06.28,15.91,15.91,0,0,1-.76,4Q33.5,35.37,22.23,37.71c-.67.14-1.36.2-2,.29H17.81l-.28-.06A29.77,29.77,0,0,1,14,37.3C6.47,35,1.89,29.94.29,22.24c-.14-.68-.2-1.37-.29-2V17.81c0-.11.05-.21.07-.32a26.25,26.25,0,0,1,.64-3.56C3.06,6.45,8.07,1.88,15.77.29,16.44.15,17.13.09,17.81,0ZM4.75,19A14.25,14.25,0,1,0,19,4.75,14.2,14.2,0,0,0,4.75,19Z"/><path class="cls-1" d="M15.83,15.05c0-1.29,0-2.57,0-3.86a3.17,3.17,0,1,1,6.34,0q0,3,0,6.08a1,1,0,0,0,.33.85c1.17,1.13,2.31,2.27,3.45,3.43a3.13,3.13,0,0,1-1.47,5.3,2.85,2.85,0,0,1-2.81-.74c-1.69-1.64-3.34-3.31-5-5a3,3,0,0,1-.85-2.19Z"/></g></g></svg>